<svg xmlns="http://www.w3.org/2000/svg" width="600" height="400" viewBox="0 0 600 400">
  <defs>
    <linearGradient id="bg" x1="0%" y1="0%" x2="100%" y2="100%">
      <stop offset="0%" style="stop-color:#101418"/>
      <stop offset="100%" style="stop-color:#1c2530"/>
    </linearGradient>
    <linearGradient id="accent" x1="0%" y1="0%" x2="100%" y2="100%">
      <stop offset="0%" style="stop-color:#f7df1e"/>
      <stop offset="100%" style="stop-color:#ffe95c"/>
    </linearGradient>
    <filter id="glow">
      <feGaussianBlur stdDeviation="3" result="coloredBlur"/>
      <feMerge><feMergeNode in="coloredBlur"/><feMergeNode in="SourceGraphic"/></feMerge>
    </filter>
  </defs>

  <rect width="600" height="400" fill="url(#bg)"/>

  <g opacity="0.07" stroke="#f7df1e" stroke-width="1">
    <line x1="0" y1="50" x2="600" y2="50"/>
    <line x1="0" y1="100" x2="600" y2="100"/>
    <line x1="0" y1="150" x2="600" y2="150"/>
    <line x1="0" y1="200" x2="600" y2="200"/>
    <line x1="0" y1="250" x2="600" y2="250"/>
    <line x1="0" y1="300" x2="600" y2="300"/>
    <line x1="0" y1="350" x2="600" y2="350"/>
    <line x1="75" y1="0" x2="75" y2="400"/>
    <line x1="150" y1="0" x2="150" y2="400"/>
    <line x1="225" y1="0" x2="225" y2="400"/>
    <line x1="300" y1="0" x2="300" y2="400"/>
    <line x1="375" y1="0" x2="375" y2="400"/>
    <line x1="450" y1="0" x2="450" y2="400"/>
    <line x1="525" y1="0" x2="525" y2="400"/>
  </g>

  <rect x="50" y="70" width="240" height="220" rx="8" fill="#0d1117" stroke="#f7df1e" stroke-width="1.5" opacity="0.9"/>
  <rect x="50" y="70" width="240" height="28" rx="8" fill="#f7df1e" opacity="0.12"/>
  <circle cx="68" cy="84" r="4" fill="#ff5f57"/>
  <circle cx="82" cy="84" r="4" fill="#febc2e"/>
  <circle cx="96" cy="84" r="4" fill="#28c840"/>
  <text x="280" y="88" text-anchor="end" font-family="monospace" font-size="10" fill="#f7df1e" opacity="0.6">script.js</text>

  <text x="66" y="122" font-family="monospace" font-size="11" fill="#7ee787">const</text>
  <text x="108" y="122" font-family="monospace" font-size="11" fill="#79c0ff">box</text>
  <text x="132" y="122" font-family="monospace" font-size="11" fill="#c9d1d9">= document.</text>
  <text x="66" y="140" font-family="monospace" font-size="11" fill="#d2a8ff">querySelector</text>
  <text x="158" y="140" font-family="monospace" font-size="11" fill="#a5d6ff">('.box')</text>
  <text x="66" y="166" font-family="monospace" font-size="11" fill="#79c0ff">box</text>
  <text x="90" y="166" font-family="monospace" font-size="11" fill="#c9d1d9">.addEventListener(</text>
  <text x="80" y="184" font-family="monospace" font-size="11" fill="#a5d6ff">'click'</text>
  <text x="126" y="184" font-family="monospace" font-size="11" fill="#c9d1d9">, () =&gt; {</text>
  <text x="94" y="202" font-family="monospace" font-size="11" fill="#79c0ff">box</text>
  <text x="118" y="202" font-family="monospace" font-size="11" fill="#c9d1d9">.classList.toggle(</text>
  <text x="108" y="220" font-family="monospace" font-size="11" fill="#a5d6ff">'active'</text>
  <text x="158" y="220" font-family="monospace" font-size="11" fill="#c9d1d9">)</text>
  <text x="80" y="238" font-family="monospace" font-size="11" fill="#c9d1d9">})</text>
  <rect x="66" y="252" width="90" height="14" rx="2" fill="#f7df1e" opacity="0.15"/>
  <rect x="66" y="252" width="3" height="14" fill="#f7df1e" opacity="0.9"/>

  <circle cx="430" cy="105" r="22" fill="#f7df1e" opacity="0.15" stroke="#f7df1e" stroke-width="1.5"/>
  <text x="430" y="111" text-anchor="middle" font-family="monospace" font-size="12" font-weight="bold" fill="#ffe95c">html</text>

  <line x1="430" y1="127" x2="375" y2="165" stroke="#f7df1e" stroke-width="1.5" opacity="0.5"/>
  <line x1="430" y1="127" x2="485" y2="165" stroke="#f7df1e" stroke-width="1.5" opacity="0.5"/>

  <circle cx="375" cy="183" r="19" fill="#0d1117" stroke="#f7df1e" stroke-width="1.5" opacity="0.9"/>
  <text x="375" y="188" text-anchor="middle" font-family="monospace" font-size="11" fill="#ffe95c">head</text>
  <circle cx="485" cy="183" r="19" fill="#0d1117" stroke="#f7df1e" stroke-width="1.5" opacity="0.9"/>
  <text x="485" y="188" text-anchor="middle" font-family="monospace" font-size="11" fill="#ffe95c">body</text>

  <line x1="485" y1="202" x2="440" y2="240" stroke="#f7df1e" stroke-width="1.5" opacity="0.5"/>
  <line x1="485" y1="202" x2="530" y2="240" stroke="#f7df1e" stroke-width="1.5" opacity="0.5"/>

  <circle cx="440" cy="256" r="17" fill="#0d1117" stroke="#f7df1e" stroke-width="1.5" opacity="0.8"/>
  <text x="440" y="261" text-anchor="middle" font-family="monospace" font-size="10" fill="#ffe95c">div</text>
  <circle cx="530" cy="256" r="17" fill="#f7df1e" opacity="0.9" filter="url(#glow)"/>
  <text x="530" y="261" text-anchor="middle" font-family="monospace" font-size="10" font-weight="bold" fill="#101418">.box</text>

  <path d="M548 268 L562 296 L552 294 L556 308 L550 310 L546 296 L538 302 Z" fill="#ffe95c" filter="url(#glow)" opacity="0.95"/>

  <rect x="230" y="300" width="140" height="26" rx="13" fill="#f7df1e" opacity="0.12"/>
  <rect x="230" y="300" width="140" height="26" rx="13" fill="none" stroke="#f7df1e" stroke-width="1" opacity="0.6"/>
  <circle cx="248" cy="313" r="5" fill="#28c840" opacity="0.9"/>
  <text x="260" y="318" font-family="monospace" font-size="11" fill="#f7df1e" opacity="0.9">LIVE OUTPUT</text>

  <rect x="74" y="316" width="34" height="34" rx="6" fill="#f7df1e"/>
  <text x="91" y="342" text-anchor="middle" font-family="monospace" font-size="20" font-weight="bold" fill="#101418">JS</text>

  <text x="300" y="360" text-anchor="middle" font-family="Poppins, sans-serif" font-size="18" font-weight="600" fill="#f7df1e" filter="url(#glow)">JS-DOM Playground</text>
  <text x="300" y="380" text-anchor="middle" font-family="monospace" font-size="10" fill="#f7df1e" opacity="0.5">JavaScript · DOM Manipulation · Live Demos</text>
</svg>
